# xmcd
#
# Track frame offsets:
# 150
# 9319
# 18849
# 28842
# 41389
#
# Disc length: 718 seconds
#
# Revision: 0
# Processed by: cddbd v1.4PL0 Copyright (c) Steve Scherf et al.
# Submitted via: Audion 3.0.2 (http://www.panic.com/audion/)
#
DISCID=2b02cc05
DTITLE=Panther - Panther
DYEAR=1900
DGENRE=
TTITLE0=Calm Yourself Panther
TTITLE1=Panther Yourself
TTITLE2=Atlast, Panther!
TTITLE3=Fuck Off the Phone
TTITLE4=Panther Confused
EXTD=
EXTT0=
EXTT1=
EXTT2=
EXTT3=
EXTT4=
PLAYORDER=
